<?xml version="1.0" encoding="UTF-8"?>
<svg width="167px" height="37px" viewBox="0 0 167 37" version="1.1" xmlns="http://www.w3.org/2000/svg" xmlns:xlink="http://www.w3.org/1999/xlink">
    <!-- Generator: Sketch 51.3 (57544) - http://www.bohemiancoding.com/sketch -->
    <title>Group</title>
    <desc>Created with Sketch.</desc>
    <defs>
        <polygon id="path-1" points="0 0 30 0 30 37 0 37"></polygon>
    </defs>
    <g id="Version-2" stroke="none" stroke-width="1" fill="none" fill-rule="evenodd">
        <g id="Documentation_Overview" transform="translate(-40.000000, -19.000000)">
            <g id="Group" transform="translate(40.000000, 19.000000)">
                <g id="Group-3">
                    <mask id="mask-2" fill="white">
                        <use xlink:href="#path-1"></use>
                    </mask>
                    <g id="Clip-2"></g>
                    <path d="M24.3547576,28.9133623 C24.355338,28.8725625 24.3556282,28.8317627 24.3556282,28.7912482 L24.3556282,24.5600504 L27.1596757,22.2818229 L27.1596757,24.1905696 C27.1596757,25.8054434 26.4361723,27.3238813 25.1749023,28.3558599 C24.9229966,28.5629974 24.6472933,28.7504483 24.3547576,28.9133623 M12.5027087,30.9747516 L20.1396897,32.3451119 C20.1495569,32.3468238 20.1597144,32.3485356 20.1701621,32.3496769 C19.9316062,32.6458322 19.7296173,32.858676 19.5354641,33.0181662 C18.2776767,34.0498594 16.6333243,34.475547 15.0240878,34.1856686 L7.35721472,32.8110287 C4.74006501,32.3402615 2.84032427,30.0714494 2.84032427,27.4163229 L2.84032427,12.8570654 C2.84032427,11.2490391 3.56208645,9.73431023 4.82016407,8.70090509 C5.07497195,8.49234099 5.35270673,8.30460478 5.64611307,8.14254677 C5.64495221,8.19162067 5.644662,8.24040926 5.644662,8.28976848 L5.644662,22.890967 C5.644662,26.8608177 8.52880857,30.2606122 12.5027087,30.9747516 M17.5097705,6.09199936 L9.84376814,4.71678877 C9.8304183,4.71450626 9.81735867,4.71222376 9.80400882,4.70994125 L9.79675347,4.7088 C10.002225,4.47113393 10.2285919,4.25058667 10.4694695,4.05286449 C11.7168092,3.03030126 13.4087567,2.59291582 14.995937,2.88279423 L22.6332082,4.25343981 C25.255872,4.72449223 27.1596757,6.96848212 27.1596757,9.58880039 L27.1596757,12.3728886 L24.3556282,14.6508307 L24.3556282,14.1609476 C24.3556282,10.1973739 21.4767055,6.80385629 17.5097705,6.09199936 M22.2417096,19.0623465 C22.6895097,19.2697694 23.20522,19.2061445 23.5868514,18.8962941 L29.5458151,14.0496754 C29.834578,13.8142918 30,13.4679214 30,13.0992965 L30,9.58880039 C30,5.61837911 27.1158534,2.21886995 23.1419533,1.50558645 L15.5049723,0.13522619 C13.0604999,-0.305012386 10.5626282,0.340937152 8.6518593,1.90844897 C7.72636691,2.66624136 6.94743257,3.69394023 6.39892814,4.88027335 C5.15594165,5.1730049 3.98144565,5.75247641 3.00226367,6.55620426 C1.09439694,8.12057763 0,10.4170652 0,12.8570654 L0,27.4870806 C0,31.4506544 2.88008358,34.8444573 6.8484696,35.5563142 L14.5118601,36.9312395 C14.8458964,36.9920112 15.1787718,37 15.4602794,37 C15.5545989,37 15.648338,36.9991441 15.7409163,36.9977175 L16.0198119,36.9960056 C18.0484077,36.9960056 19.893298,36.3620392 21.3559765,35.1625817 C22.3145533,34.3771139 23.094068,33.3696723 23.6106489,32.2489613 C25.6395349,31.7639285 27.4336377,30.4902895 28.6638548,28.6622865 C29.5379793,27.3632546 30,25.7988812 30,24.1383572 L30,19.3114251 C30,18.7667618 29.6883102,18.2837263 29.1868204,18.0511958 C28.6847502,17.8189507 28.1078048,17.8902791 27.6803196,18.2375055 L21.9906745,22.8584413 C21.7062648,23.0895452 21.515304,23.5166593 21.515304,23.921519 L21.515304,28.7912482 C21.515304,29.0617253 21.4932477,29.3393352 21.4497156,29.6163745 C21.4024107,29.6178011 21.3548156,29.6189423 21.3072205,29.6206542 L21.2950315,29.6209395 C21.0706961,29.6280724 20.8588399,29.6346346 20.6510467,29.5969732 L13.0137755,28.2266129 C10.3896606,27.7561311 8.48498626,25.5124266 8.48498626,22.890967 L8.48498626,8.28976848 C8.48498626,8.01387042 8.50791317,7.73112484 8.55289634,7.4492352 C8.82134427,7.45950649 9.08456836,7.48775251 9.33618388,7.53311734 L16.9984135,8.8372849 C19.6155632,9.30805201 21.515304,11.5469063 21.515304,14.1609476 L21.515304,17.9370705 C21.515304,18.4238151 21.7936192,18.855209 22.2417096,19.0623465" id="Fill-1" fill="#000000" mask="url(#mask-2)"></path>
                </g>
                <text id="developer" font-family="Gibson-SemiBold, Gibson" font-size="26" font-weight="500" letter-spacing="0.096" fill="#000000">
                    <tspan x="43" y="26">developer</tspan>
                </text>
            </g>
        </g>
    </g>
</svg>